<svg width="50" height="50" viewBox="0 0 50 50" fill="none" xmlns="http://www.w3.org/2000/svg">
<path d="M10.0976 40.0946C9.52701 43.165 11.8837 45.9996 15.0067 45.9992L25 45.9979H34.5347C37.3539 45.9979 39.46 43.4058 38.883 40.6464L38.1012 36.9069C36.4562 29.0392 38.436 20.8487 43.4929 14.6009C43.821 14.1956 44 13.69 44 13.1685V6C44 4.89543 43.1046 4 42 4L32.4108 4C31.5656 4 30.8116 4.53129 30.5273 5.32723L28.9322 9.79298C27.6499 13.3828 22.5495 13.3145 21.3637 9.69172L19.9518 5.37786C19.6827 4.55591 18.9158 4 18.051 4H8C6.89543 4 6 4.89543 6 6L6 13.2218C6 13.7126 6.14529 14.1924 6.41757 14.6008C10.6386 20.9316 12.2225 28.6598 10.8323 36.1407L10.0976 40.0946Z" fill="#E4E4E4"/>
</svg>
