<svg width="50" height="50" viewBox="0 0 50 50" fill="none" xmlns="http://www.w3.org/2000/svg">
<g clip-path="url(#clip0_79_1670)">
<path d="M21.8461 3.04295C23.4476 0.990028 26.5524 0.990026 28.1539 3.04295L34.8257 11.5955C35.2879 12.1881 35.9078 12.6385 36.6142 12.895L46.8099 16.5974C49.2572 17.4861 50.2167 20.4389 48.7591 22.5964L42.6868 31.5845C42.2661 32.2073 42.0293 32.936 42.0036 33.6871L41.6331 44.5279C41.5442 47.13 39.0324 48.955 36.5301 48.2355L26.1054 45.2379C25.3831 45.0302 24.6169 45.0302 23.8946 45.2379L13.4699 48.2355C10.9676 48.955 8.4558 47.13 8.36687 44.5279L7.99636 33.6871C7.97068 32.936 7.73391 32.2073 7.31318 31.5845L1.2409 22.5964C-0.216673 20.4389 0.742763 17.4861 3.19009 16.5974L13.3858 12.895C14.0922 12.6385 14.7121 12.1881 15.1743 11.5955L21.8461 3.04295Z" fill="#E4E4E4"/>
</g>
<defs>
<clipPath id="clip0_79_1670">
<rect width="50" height="50" fill="white"/>
</clipPath>
</defs>
</svg>
