<svg width="50" height="50" viewBox="0 0 50 50" fill="none" xmlns="http://www.w3.org/2000/svg">
<path d="M17.6079 5.46164C44.6896 0.868267 45.1474 7.2968 45.1474 21.9954C45.1473 26.3672 44.659 29.5192 43.926 31.9481C47.6743 35.4667 49.9152 36.8518 45.7835 35.4014C44.9461 35.1074 44.1136 34.7965 43.2951 34.4676C37.5919 31.8803 34.6913 29.0558 36.4554 31.1803C38.3026 33.4049 39.5575 34.4318 42.1398 35.9539C38.8128 41.2604 32.3271 44.6727 26.1605 45.9174C23.8092 46.3918 21.5485 44.7715 21.231 42.3851L21.1631 41.8757C21.0385 40.9379 21.9161 40.1317 22.8572 40.1822C24.6312 40.2778 27.2422 40.0145 29.0769 38.0681C33.8022 33.0537 25.9335 16.9438 25.9335 25.6693C25.933 30.5875 20.5513 34.0219 17.3237 35.6391C15.9326 36.3359 14.3014 35.8852 13.3655 34.639C10.1133 30.3074 3.00073 20.1046 3 13.7281C3.00071 11.7974 13.5163 6.1558 17.6079 5.46164Z" fill="#E4E4E4"/>
</svg>
